<svg width="139" height="19" viewBox="0 0 139 19" fill="none" xmlns="http://www.w3.org/2000/svg">
<g clip-path="url(#clip0_3677_7053)">
<path d="M5.60579 4.5139V18.7344H10.7713V4.5139H16.3478V0.412964H0V4.5139H5.60579Z" fill="#2188FF"/>
<path d="M30.7585 12.9813C31.832 12.4719 32.7458 11.6758 33.3999 10.68C34.0348 9.63247 34.3605 8.42513 34.3391 7.19866C34.3549 5.92774 34.0086 4.67881 33.3412 3.59928C32.6451 2.55857 31.6675 1.73963 30.5237 1.23903C29.1701 0.66033 27.7092 0.378695 26.2386 0.412944H17.9033V4.48437H25.9158C26.943 4.48437 27.7648 4.7204 28.3224 5.19245C28.5936 5.44249 28.8075 5.74874 28.9494 6.09003C29.0913 6.43132 29.1578 6.79951 29.1442 7.16915C29.1608 7.53917 29.0957 7.90829 28.9536 8.25004C28.8115 8.59179 28.596 8.89771 28.3224 9.14586C27.7648 9.61791 26.9724 9.82443 25.9158 9.82443H17.9033V18.7049H23.0689V13.8369H25.8864L29.2029 18.7049H34.7207L30.7585 12.9813Z" fill="#2188FF"/>
<path d="M49.19 0.412964H44.1125L36.0414 18.7344H41.3243L42.7625 15.1645L44.2593 11.3291L46.6073 5.458L48.9552 11.3291L50.4521 15.1645L51.8902 18.7344H57.2612L49.19 0.412964Z" fill="#2188FF"/>
<path d="M61.3114 17.7903C62.9029 18.6284 64.6808 19.0447 66.477 18.9999C68.0281 19.0202 69.5667 18.7189 70.9968 18.1148C72.2992 17.5388 73.4462 16.6589 74.3427 15.548L71.0555 12.5682C69.8522 14.0139 68.414 14.722 66.7704 14.722C65.8392 14.7421 64.9189 14.5184 64.0996 14.0729C63.3255 13.6687 62.6987 13.0283 62.3093 12.2437C61.8858 11.3928 61.6743 10.4512 61.693 9.49991C61.6708 8.55772 61.8827 7.62484 62.3093 6.78562C62.7146 6.00494 63.3365 5.35926 64.0996 4.92692C64.924 4.49497 65.8409 4.27215 66.7704 4.27786C68.4434 4.27786 69.8815 5.01543 71.0555 6.43158L74.3427 3.45177C73.4502 2.33686 72.3021 1.45611 70.9968 0.884998C69.5675 0.278118 68.0283 -0.0232961 66.477 -9.53714e-05C64.6787 -0.0314575 62.9018 0.394799 61.3114 1.23904C59.848 2.02912 58.614 3.18816 57.7308 4.60239C56.8534 6.09227 56.4062 7.79837 56.4394 9.52941C56.4025 11.2609 56.8499 12.968 57.7308 14.4564C58.607 15.8689 59.8433 17.02 61.3114 17.7903Z" fill="#2188FF"/>
<path d="M80.741 4.5139V18.7344H85.9065V4.5139H91.483V0.412964H75.1646V4.5139H80.741Z" fill="#2188FF"/>
<path d="M93.0385 0.412964V18.7344H98.204V0.412964H93.0385Z" fill="#2188FF"/>
<path d="M112.468 0.412964H107.39L99.3486 18.7344H104.602L106.04 15.1645L107.537 11.3291L109.885 5.458L112.233 11.3291L113.73 15.1645L115.168 18.7344H120.539L112.468 0.412964Z" fill="#2188FF"/>
<path d="M121.684 18.7344H126.732L126.761 13.2468L121.713 6.78563L121.684 18.7344ZM133.952 0.412964L133.922 5.66452L138.971 11.8012L139 0.412964H133.952ZM133.952 10.1785L125.91 0.412964H121.654V2.86172L126.702 8.99837L134.744 18.7639H139V16.6397L133.952 10.1785Z" fill="#2188FF"/>
</g>
<defs>
<clipPath id="clip0_3677_7053">
<rect width="139" height="19" fill="white"/>
</clipPath>
</defs>
</svg>
